<svg width="367" height="404" viewBox="0 0 367 404" fill="none" xmlns="http://www.w3.org/2000/svg">
<g clip-path="url(#clip0_127_81)" filter="url(#filter0_d_127_81)">
<path d="M175.592 33.9935C160.449 30.0174 140.134 65.1801 131.64 81.43C124.362 84.2005 115.52 88.7457 105.749 94.5089C95.9141 100.183 87.614 105.638 81.621 110.621C63.276 110.029 22.6762 110.437 18.7035 125.566C14.7578 140.591 40.7971 160.293 53.1279 168.633C53.0332 183.584 57.7318 197.145 63.8516 207.611C69.1411 216.661 75.5023 225.082 82.9634 232.862C97.5136 248.043 119.405 253.435 139.318 246.656C154.692 241.403 169.25 234.777 183.012 226.74C196.774 218.704 209.706 209.3 221.827 198.491C237.525 184.501 243.582 162.792 237.505 142.653C234.392 132.346 230.189 122.661 224.899 113.61C218.779 103.145 209.284 92.3784 196.217 85.1257C194.999 70.2986 190.639 37.9234 175.601 33.9743L175.592 33.9935Z" fill="#9C9A9B"/>
<path d="M119.25 95.2982C128.007 110.291 130.737 124.972 125.374 128.108C119.997 131.249 108.533 121.65 99.7804 106.671C98.5837 104.62 97.5014 102.576 96.5385 100.554C102.708 96.5774 109.039 92.8792 115.536 89.4735C116.81 91.2908 118.067 93.2416 119.264 95.2932L119.25 95.2982Z" fill="#6F818C"/>
<path d="M95.4779 102.583C104.23 117.562 106.965 132.256 101.602 135.393C96.4373 138.412 85.5802 129.588 76.9745 115.53C79.8137 112.704 82.9129 110.073 86.2294 107.653C89.094 105.582 91.9784 103.569 94.9261 101.644C95.1307 101.955 95.3068 102.276 95.4971 102.592L95.4779 102.583Z" fill="#6F818C"/>
<path d="M138.118 79.6566C146.192 94.1083 148.585 107.966 143.392 110.995C138.015 114.136 126.561 104.518 117.808 89.5389C117.618 89.223 117.442 88.9021 117.266 88.5812C120.848 86.7377 124.507 84.9786 128.216 83.314C131.465 81.8419 134.79 80.6303 138.118 79.6566Z" fill="#6F818C"/>
<path d="M177.85 63.598C177.85 63.598 181.46 66.2078 183.996 69.99C186.366 73.4798 185.792 77.5378 183.596 80.3785C173.562 77.0528 162.85 75.7977 152.166 76.8118C151.093 74.7964 150.786 72.3696 151.541 69.9695C154.566 60.3357 159.796 48.7985 167.622 47.685C181.254 45.7506 177.831 63.5888 177.831 63.5888L177.85 63.598Z" fill="white"/>
<path d="M43.3488 142.107C43.3488 142.107 43.8422 146.525 45.8924 150.604C47.7715 154.378 51.5979 155.875 55.1377 155.37C57.171 144.999 61.3435 135.043 67.4709 126.252C66.238 124.325 64.2788 122.875 61.8142 122.351C51.9366 120.246 39.3119 119.134 34.4995 125.393C26.1128 136.297 43.3346 142.112 43.3346 142.112L43.3488 142.107Z" fill="white"/>
<path d="M227.978 111.831C223.401 103.997 214.421 91.696 199.604 82.952C197.898 64.3591 192.649 34.781 176.503 30.5347C160.538 26.3523 142.033 54.0598 129.099 78.5899C122.168 81.3503 113.766 85.6463 103.966 91.4194C94.0931 97.1223 86.2087 102.352 80.3921 107.018C52.6641 106.236 19.4133 108.726 15.2287 124.663C10.9807 140.829 34.1731 159.918 49.5465 170.524C49.8704 187.72 56.1733 201.58 60.7548 209.428C66.1665 218.691 72.7606 227.412 80.3716 235.347C95.821 251.457 119.408 257.227 140.458 250.05C141.055 249.842 141.666 249.628 142.263 249.419C157.142 244.211 171.43 237.632 184.781 229.835C198.675 221.72 211.922 212.079 224.185 201.172C240.795 186.369 247.356 163.001 240.914 141.635C237.746 131.125 233.389 121.094 227.978 111.831ZM234.064 143.714C239.705 162.428 233.963 182.894 219.431 195.839C207.54 206.44 194.669 215.79 181.186 223.666C167.703 231.541 153.23 238.137 138.154 243.286C119.715 249.581 99.0712 244.518 85.5368 230.416C78.3271 222.898 72.0633 214.618 66.9349 205.846C61.274 196.145 52.689 176.357 58.779 152.693C59.2747 150.782 58.1129 148.829 56.206 148.349C54.2941 147.855 52.34 149.017 51.8443 150.928C50.8621 154.73 50.2309 158.442 49.879 162.04C30.5363 147.978 20.0029 134.611 22.1357 126.485C24.2238 118.55 43.383 113.947 72.8199 114.052C69.7873 117.329 66.9849 120.716 64.5449 124.137C63.402 125.748 63.7681 127.979 65.3799 129.12C66.3617 129.828 67.5872 129.957 68.6389 129.589C69.3068 129.355 69.9194 128.918 70.3721 128.297C72.9756 124.66 75.9749 121.06 79.281 117.608C84.5572 112.127 94.0669 105.388 107.551 97.6077C120.949 89.7148 131.474 84.7395 138.851 82.843C143.49 81.6496 148.091 80.804 152.536 80.332C154.505 80.1213 155.931 78.3629 155.721 76.3961C155.511 74.4294 153.752 73.0049 151.784 73.2156C147.587 73.6649 143.274 74.4251 138.919 75.4715C153.131 50.1274 166.832 35.4018 174.652 37.4622C182.769 39.5942 189.247 55.3216 191.976 79.0711C188.674 77.6129 185.132 76.3345 181.332 75.3217C179.429 74.8081 177.465 75.9419 176.95 77.8435C176.435 79.7451 177.568 81.7073 179.471 82.2208C203.076 88.5425 216.104 105.755 221.76 115.442C226.893 124.229 231.018 133.735 234.031 143.71L234.064 143.714Z" fill="#6F818C"/>
<path d="M200.053 159.3C198.476 159.852 196.662 159.228 195.788 157.733C194.791 156.026 195.369 153.847 197.078 152.85L211.345 144.526C213.054 143.529 215.234 144.105 216.244 145.807C217.241 147.514 216.663 149.693 214.954 150.69L200.687 159.015C200.489 159.132 200.267 159.226 200.053 159.3Z" fill="#6F818C"/>
<path d="M219.567 165.874C219.382 165.939 219.193 165.989 218.998 166.026L204.798 168.526C202.86 168.869 201.003 167.574 200.656 165.624C200.313 163.688 201.609 161.832 203.561 161.483L217.761 158.983C219.699 158.64 221.556 159.934 221.904 161.885C222.21 163.626 221.187 165.307 219.567 165.874Z" fill="#6F818C"/>
<path d="M100.365 217.495C98.7873 218.047 96.9736 217.423 96.0993 215.928C95.1029 214.221 95.6804 212.042 97.3894 211.045L111.671 202.716C113.38 201.719 115.559 202.295 116.57 203.997C117.566 205.705 116.989 207.883 115.28 208.88L100.999 217.21C100.8 217.327 100.578 217.421 100.365 217.495Z" fill="#6F818C"/>
<path d="M110.791 229.37C109.654 229.768 108.341 229.574 107.339 228.761C105.816 227.509 105.588 225.262 106.856 223.734L116.006 212.594C117.259 211.072 119.508 210.842 121.031 212.095C122.554 213.347 122.782 215.594 121.514 217.121L112.365 228.261C111.925 228.782 111.387 229.161 110.791 229.37Z" fill="#6F818C"/>
<path d="M168.494 165.437C166.593 165.975 165.503 167.967 166.054 169.862C166.732 172.207 165.74 174.705 163.62 175.941C161.075 177.422 157.811 176.572 156.331 174.03L153.742 169.597L154.658 169.069C156.367 168.072 156.94 165.879 155.948 164.186C154.952 162.479 152.758 161.908 151.049 162.905L143.038 167.59C141.329 168.586 140.756 170.779 141.747 172.472C142.627 173.981 144.421 174.596 146.013 174.039C146.226 173.965 146.434 173.876 146.647 173.754L147.563 173.226L150.151 177.659C151.631 180.201 150.779 183.464 148.235 184.945C146.115 186.181 143.453 185.821 141.742 184.077C140.354 182.666 138.097 182.644 136.684 184.031C135.271 185.418 135.247 187.673 136.635 189.085C140.062 192.587 145.159 193.704 149.664 192.127C150.417 191.863 151.145 191.529 151.849 191.123C154.856 189.369 156.862 186.531 157.649 183.403C160.771 184.254 164.223 183.907 167.225 182.139C172.177 179.242 174.515 173.387 172.93 167.901C172.378 166.006 170.4 164.914 168.504 165.466L168.494 165.437Z" fill="#6F818C"/>
<path d="M131.167 162.389C135.893 170.377 136.468 179.675 133.52 187.752C131.236 194.034 126.861 199.582 120.663 203.25C118.322 204.627 115.861 205.664 113.357 206.349C100.695 209.825 86.7818 204.621 79.7799 192.775C74.0088 183.032 74.4324 171.345 79.8793 162.25C82.3373 158.106 85.8417 154.537 90.2695 151.919C93.5362 149.994 96.9938 148.752 100.528 148.185C112.336 146.188 124.703 151.486 131.158 162.408L131.167 162.389Z" fill="#B5F6F8"/>
<path d="M203.966 119.343C208.385 126.818 209.164 135.423 206.853 143.133C204.779 150.059 200.18 156.243 193.462 160.204C191.333 161.46 189.114 162.412 186.839 163.112C173.992 166.972 159.698 161.774 152.574 149.716C146.549 139.52 147.282 127.166 153.47 117.955C155.874 114.341 159.118 111.213 163.083 108.868C166.534 106.832 170.234 105.553 173.959 105.03C185.58 103.321 197.628 108.619 203.966 119.343Z" fill="#B5F6F8"/>
<path d="M206.853 143.133C204.779 150.059 200.18 156.243 193.462 160.204C191.334 161.46 189.114 162.412 186.839 163.112C187.593 146.99 180.78 141.517 169.32 144.189C158.126 146.8 151.691 131.424 153.45 117.946C155.854 114.331 159.099 111.203 163.064 108.859C166.515 106.823 170.214 105.543 173.94 105.021C171.774 118.705 178.244 134.818 189.689 132.15C198.98 129.982 205.241 133.194 206.834 143.124L206.853 143.133Z" fill="#E6FCFC"/>
<path d="M133.52 187.752C131.236 194.034 126.861 199.582 120.663 203.25C118.322 204.627 115.861 205.664 113.357 206.349C114.056 190.389 107.234 184.983 95.8507 187.644C84.8798 190.209 78.5075 175.513 79.8793 162.25C82.3373 158.106 85.8417 154.537 90.2695 151.919C93.5362 149.994 96.9938 148.752 100.528 148.185C98.2111 161.938 104.675 178.308 116.21 175.625C125.872 173.375 132.233 176.918 133.516 187.785L133.52 187.752Z" fill="#E6FCFC"/>
<path d="M219.996 83.194L217.281 82.5025C214.16 81.6982 210.841 82.2864 208.182 84.1254C205.524 85.9644 203.79 88.8504 203.428 92.0535L201.378 110.399C190.831 100.32 174.437 98.0089 161.271 105.789C153.577 110.331 148.127 117.594 145.906 126.245C144.168 133.037 144.576 140.035 147.046 146.455C139.294 147.733 134.092 152.423 131.089 156.104C126.64 150.776 120.656 146.989 113.802 145.228C105.161 143.009 96.1523 144.297 88.472 148.834C80.7775 153.376 75.3275 160.639 73.1071 169.29C71.652 174.932 71.7131 180.712 73.1696 186.195L56.1108 179.16C53.1263 177.926 49.757 178.053 46.8642 179.496C43.9714 180.939 41.8577 183.559 41.0561 186.693L40.3627 189.406C39.867 191.317 41.0289 193.269 42.9357 193.749C44.8476 194.244 46.8018 193.081 47.2833 191.176L47.9767 188.462C48.2647 187.326 49.0131 186.41 50.0577 185.885C51.1023 185.36 52.2824 185.314 53.3651 185.763L77.3414 195.653C85.791 208.809 102.144 214.147 116.497 209.123C118.544 208.407 120.549 207.482 122.48 206.344C130.174 201.802 135.624 194.539 137.845 185.888C139.88 177.939 138.959 169.702 135.277 162.464C137.178 159.599 142.151 153.571 150.603 153.29C155.173 160.058 161.972 164.851 169.949 166.905C176.415 168.562 183.077 168.27 189.245 166.112C191.32 165.385 193.339 164.455 195.279 163.298C202.974 158.756 208.424 151.493 210.644 142.842C212.766 134.593 211.688 126.044 207.65 118.611L210.534 92.8495C210.669 91.6864 211.273 90.678 212.235 90.0068C213.196 89.3355 214.355 89.1371 215.493 89.4243L218.207 90.1158C220.119 90.6102 222.073 89.448 222.555 87.5422C223.05 85.6314 221.889 83.6791 219.982 83.199L219.996 83.194ZM130.919 184.104C129.167 190.902 124.88 196.61 118.837 200.175C117.317 201.074 115.738 201.802 114.132 202.364C102.564 206.413 89.3175 201.885 82.8434 190.954C79.2789 184.918 78.2611 177.862 80.0135 171.065C81.7659 164.267 86.0531 158.559 92.0954 154.993C93.6154 154.095 95.2093 153.362 96.8436 152.79C101.69 151.093 106.919 150.857 112.004 152.169C118.806 153.916 124.516 158.198 128.08 164.234C131.645 170.27 132.662 177.326 130.91 184.123L130.919 184.104ZM203.723 141.073C201.971 147.87 197.684 153.579 191.642 157.144C185.599 160.709 178.539 161.73 171.737 159.983C164.936 158.235 159.231 153.968 155.667 147.932C152.102 141.896 151.084 134.84 152.837 128.043C154.589 121.245 158.877 115.537 164.919 111.971C166.439 111.073 168.018 110.345 169.624 109.782C181.192 105.733 194.439 110.262 200.913 121.193C204.477 127.229 205.495 134.284 203.743 141.082L203.723 141.073Z" fill="#5F5C5D"/>
<path d="M104.439 181.69C101.344 176.493 102.493 170.114 107.01 167.433C111.513 164.757 117.681 166.79 120.776 171.987C123.871 177.183 122.722 183.562 118.204 186.243C113.701 188.919 107.534 186.886 104.439 181.69Z" fill="#63D3D6"/>
<path d="M166.113 145.009C163.018 139.812 164.167 133.433 168.685 130.752C173.188 128.076 179.355 130.109 182.45 135.306C185.545 140.502 184.396 146.881 179.879 149.562C175.376 152.238 169.208 150.205 166.113 145.009Z" fill="#63D3D6"/>
<path d="M257.023 197.137C261.906 193.085 263.419 186.244 260.712 180.513L251.349 160.647C252.706 158.371 262.994 141.685 258.828 137.532C254.59 133.31 247.608 141.253 247.608 141.253L247.536 141.23C243.476 134.506 236.08 121.125 231.659 123.214C228.755 124.581 230.991 136.119 231.674 139.482L222.603 144.649C217.86 147.186 215.474 152.404 216.324 157.43C216.543 158.693 216.961 159.933 217.602 161.127L220.006 165.625C221.97 169.321 225.603 171.588 229.494 171.995C229.572 176 232.236 183.929 235.155 191.451C238.6 200.334 249.732 203.244 257.056 197.142L257.023 197.137Z" fill="#9C9A9B"/>
<path d="M244.267 170.904C254.494 167.325 260.175 156.966 256.955 147.767C253.735 138.569 242.835 134.014 232.608 137.593C222.381 141.173 216.7 151.532 219.92 160.73C223.14 169.929 234.04 174.484 244.267 170.904Z" fill="white"/>
<path d="M239.344 140.113C241.534 139.346 241.941 134.815 240.253 129.992C238.564 125.17 235.421 121.881 233.231 122.648C231.041 123.414 230.635 127.945 232.323 132.768C234.011 137.591 237.154 140.879 239.344 140.113Z" fill="white"/>
<path d="M254.93 145.766C258.046 144.676 259.896 141.859 259.061 139.475C258.227 137.091 255.025 136.043 251.909 137.133C248.793 138.224 246.943 141.041 247.778 143.425C248.612 145.808 251.815 146.857 254.93 145.766Z" fill="white"/>
<path d="M253.871 202.99C250.673 204.109 247.171 204.267 243.749 203.377C238.224 201.948 233.867 198.07 231.794 192.739C228.745 184.849 226.902 178.991 226.209 174.961C222.216 173.761 218.838 171.039 216.841 167.291L214.437 162.793C213.619 161.278 213.072 159.668 212.795 158.012C211.659 151.349 214.904 144.714 220.866 141.512L227.491 137.742C226.033 132.802 223.517 123.928 229.818 120.144C232.613 118.465 235.082 118.685 236.637 119.161C241.879 120.784 244.894 127.348 247.806 133.708C248.087 134.327 248.362 134.932 248.647 135.517C250.565 134.113 253.026 132.805 255.629 132.723C257.823 132.656 259.806 133.445 261.372 135C266.441 140.048 261.077 151.249 255.418 160.833L263.97 178.974C267.37 186.184 265.463 194.773 259.334 199.867C257.678 201.243 255.841 202.285 253.88 202.971L253.871 202.99ZM233.986 126.034C233.858 126.078 233.692 126.152 233.494 126.269C232.399 126.924 232.699 130.198 234.412 135.957C234.728 137.042 235.008 137.98 235.172 138.768C235.48 140.285 234.774 141.824 233.429 142.582L224.358 147.749C224.358 147.749 224.301 147.769 224.277 147.793C220.999 149.546 219.219 153.166 219.844 156.82C220 157.722 220.303 158.588 220.753 159.418L223.157 163.916C224.504 166.442 227.004 168.117 229.87 168.42C231.658 168.607 233.028 170.104 233.069 171.907C233.093 173.572 233.837 178.157 238.479 190.144C239.697 193.304 242.287 195.601 245.552 196.451C248.811 197.286 252.157 196.545 254.754 194.393C258.371 191.374 259.501 186.308 257.496 182.037L248.134 162.171C247.633 161.103 247.685 159.842 248.299 158.814L248.513 158.468C256.762 144.711 256.349 140.568 256.216 139.961C256.106 139.872 256.02 139.854 255.868 139.876C254.368 139.922 251.677 142.076 250.304 143.624C249.311 144.753 247.708 145.139 246.319 144.589L246.247 144.566C245.524 144.277 244.897 143.763 244.502 143.089C243.428 141.297 242.395 139.076 241.313 136.714C239.601 132.962 236.719 126.687 234.538 126.016C234.466 125.993 234.308 125.953 234.01 126.057L233.986 126.034Z" fill="#6F818C"/>
<path d="M311.121 166.248L347.655 270.625C350.741 279.443 346.084 289.106 337.259 292.195L287.419 309.64L305.144 315.023C312.888 317.365 313.109 328.254 305.478 330.925L234.805 355.662C227.159 358.338 220.561 349.697 225.134 343.028L235.647 327.761L185.808 345.206C176.983 348.295 167.316 343.645 164.229 334.828L127.695 230.45C124.609 221.633 129.267 211.969 138.092 208.88L289.542 155.87C298.368 152.781 308.035 157.43 311.121 166.248Z" fill="#767576"/>
<path d="M143.62 231.236L171.993 312.298C173.489 316.572 178.164 318.809 182.442 317.312L322.537 268.276C326.815 266.779 329.075 262.115 327.579 257.841L299.205 176.778C297.71 172.504 293.029 170.253 288.752 171.751L148.656 220.787C144.379 222.284 142.124 226.962 143.62 231.236Z" fill="#B5F6F8"/>
<path d="M288.895 175.35L149.51 224.138C144.801 225.786 142.318 230.936 143.965 235.642L171.081 313.112C172.728 317.817 177.881 320.295 182.59 318.647L321.975 269.859C326.684 268.211 329.167 263.061 327.52 258.355L300.404 180.885C298.757 176.18 293.604 173.702 288.895 175.35Z" fill="#3F3F85"/>
<path d="M178.363 228.224L162.091 233.92L162.861 236.12L179.133 230.425L178.363 228.224Z" fill="#F0C62E"/>
<path d="M216.819 214.764L183.521 226.418L184.292 228.619L217.589 216.965L216.819 214.764Z" fill="#F0C62E"/>
<path d="M188.381 234.695L172.109 240.391L172.879 242.592L189.151 236.896L188.381 234.695Z" fill="white"/>
<path d="M288.698 199.582L193.539 232.89L194.31 235.09L289.469 201.783L288.698 199.582Z" fill="#5A99FC"/>
<path d="M191.273 242.959L175.001 248.655L175.771 250.855L192.043 245.16L191.273 242.959Z" fill="white"/>
<path d="M291.591 207.846L196.432 241.153L197.202 243.354L292.361 210.047L291.591 207.846Z" fill="#5A99FC"/>
<path d="M194.166 251.223L177.894 256.918L178.664 259.119L194.936 253.424L194.166 251.223Z" fill="white"/>
<path d="M294.483 216.11L199.324 249.417L200.095 251.618L295.254 218.311L294.483 216.11Z" fill="#5A99FC"/>
<path d="M197.058 259.487L180.786 265.182L181.556 267.383L197.828 261.688L197.058 259.487Z" fill="white"/>
<path d="M193.208 270.637L176.936 276.332L177.706 278.533L193.978 272.838L193.208 270.637Z" fill="#F0C62E"/>
<path d="M231.664 257.176L198.367 268.831L199.137 271.032L232.434 259.377L231.664 257.176Z" fill="#F0C62E"/>
<path d="M269.754 253.838L208.389 275.316L209.16 277.517L270.524 256.039L269.754 253.838Z" fill="white"/>
<path d="M272.647 262.102L211.282 283.58L212.052 285.781L273.417 264.302L272.647 262.102Z" fill="white"/>
<path d="M206.123 285.386L200.723 287.276L201.493 289.477L206.893 287.587L206.123 285.386Z" fill="#5A99FC"/>
<path d="M209.016 293.65L192.744 299.345L193.514 301.546L209.786 295.851L209.016 293.65Z" fill="#5A99FC"/>
<path d="M275.539 270.365L214.174 291.844L214.945 294.045L276.309 272.566L275.539 270.365Z" fill="white"/>
<path d="M304.231 241.77L274.16 252.296L274.93 254.497L305.001 243.971L304.231 241.77Z" fill="white"/>
<path d="M307.123 250.034L277.052 260.56L277.822 262.76L307.894 252.235L307.123 250.034Z" fill="white"/>
<path d="M310.016 258.298L279.945 268.823L280.715 271.024L310.786 260.499L310.016 258.298Z" fill="white"/>
<path d="M297.376 224.374L202.217 257.681L202.987 259.882L298.146 226.575L297.376 224.374Z" fill="#5A99FC"/>
<path d="M323.706 271.66L183.61 320.696C177.485 322.84 170.753 319.602 168.611 313.482L140.237 232.42C138.095 226.3 141.339 219.57 147.464 217.426L287.56 168.39C293.685 166.247 300.417 169.484 302.559 175.604L330.933 256.667C333.075 262.787 329.831 269.516 323.706 271.66ZM149.82 224.157C147.418 224.997 146.143 227.643 146.983 230.043L175.356 311.105C176.196 313.505 178.843 314.778 181.245 313.937L321.34 264.901C323.742 264.061 325.017 261.415 324.177 259.015L295.804 177.953C294.964 175.553 292.317 174.28 289.915 175.121L149.82 224.157Z" fill="#5F5C5D"/>
<path d="M288.374 152.486L136.923 205.496C126.251 209.232 120.604 220.947 124.336 231.61L160.87 335.987C164.603 346.651 176.323 352.287 186.995 348.552L226.503 334.723L222.209 340.96C219.225 345.288 219.363 350.786 222.553 354.977C225.752 359.149 231.027 360.729 235.987 358.993L306.66 334.257C311.634 332.516 314.772 327.99 314.657 322.739C314.556 317.483 311.22 313.104 306.184 311.567L298.938 309.37L338.446 295.541C349.118 291.806 354.765 280.091 351.032 269.427L314.498 165.05C310.766 154.386 299.046 148.75 288.374 152.486ZM304.118 318.427C306.562 319.165 307.478 321.235 307.522 322.909C307.551 324.589 306.734 326.676 304.318 327.521L233.645 352.258C231.229 353.104 229.275 351.987 228.265 350.651C227.241 349.32 226.671 347.144 228.13 345.024L237.976 330.723L287.546 313.373L304.161 318.412L304.118 318.427ZM344.287 271.804C346.717 278.747 343.039 286.378 336.09 288.811L184.64 341.821C177.69 344.254 170.056 340.582 167.626 333.639L131.092 229.261C128.661 222.318 132.34 214.687 139.289 212.255L290.739 159.244C297.689 156.812 305.323 160.483 307.753 167.427L344.287 271.804Z" fill="#5F5C5D"/>
<path d="M122.292 239.897L116.966 240.406C109.972 241.069 104.821 247.271 105.485 254.274L106.623 266.276C106.837 268.481 107.585 270.482 108.743 272.197C109.049 276.122 110.038 280.271 111.774 284.365C117.723 298.444 130.081 306.679 139.408 302.744C148.721 298.815 151.459 284.214 145.51 270.134C143.3 264.915 140.226 260.508 136.745 257.216L136.3 252.574C139.757 251.236 142.448 249.083 141.956 245.669C141.123 239.872 131.925 238.979 122.306 239.892L122.292 239.897Z" fill="#9C9A9B"/>
<path d="M126.116 273.384C134.844 270.329 139.445 260.783 136.393 252.063C133.341 243.343 123.791 238.75 115.063 241.805C106.335 244.86 101.735 254.406 104.787 263.126C107.839 271.846 117.389 276.439 126.116 273.384Z" fill="white"/>
<path d="M128.195 263.507C137.543 260.236 143.327 252.459 141.115 246.139C138.903 239.818 129.531 237.347 120.183 240.619C110.836 243.891 105.051 251.667 107.263 257.987C109.476 264.308 118.847 266.779 128.195 263.507Z" fill="white"/>
<path d="M121.968 236.328C121.968 236.328 121.911 236.348 121.878 236.344L116.628 236.842C107.675 237.697 101.064 245.653 101.914 254.6L103.052 266.602C103.279 269.073 104.065 271.364 105.261 273.368C105.683 277.491 106.759 281.658 108.476 285.743C115.101 301.434 128.701 310.302 139.829 306.407C140.141 306.297 140.468 306.183 140.785 306.04C146.431 303.666 150.303 298.277 151.695 290.905C152.971 284.067 151.955 276.198 148.803 268.742C146.672 263.702 143.706 259.194 140.182 255.598L140.103 254.733C141.501 253.941 142.654 253.043 143.511 252.026C145.172 250.074 145.856 247.699 145.5 245.178C144.197 236.166 132.001 235.414 121.978 236.357L121.968 236.328ZM144.657 289.575C143.739 294.518 141.377 298.023 138.012 299.44C130.653 302.525 120.153 294.996 115.077 282.954C114.732 282.15 114.429 281.332 114.146 280.522C116.242 281.223 118.513 281.512 120.842 281.286L126.168 280.777C127.513 280.657 128.8 280.366 130.022 279.938C135.351 278.073 139.346 273.535 140.556 268.059C141.153 269.173 141.713 270.316 142.22 271.493C144.83 277.672 145.686 284.083 144.671 289.57L144.657 289.575ZM138.411 246.161C138.489 246.659 138.389 246.965 138.052 247.37C135.951 249.843 128.356 251.115 123.639 251.22C121.659 251.259 120.092 252.891 120.131 254.87C120.169 256.849 121.802 258.413 123.782 258.374C123.925 258.372 127.342 258.291 131.336 257.579C131.968 257.469 132.561 257.341 133.14 257.218L133.75 263.699C134.219 268.731 130.518 273.198 125.487 273.684L120.162 274.193C115.127 274.664 110.659 270.968 110.175 265.942L109.037 253.94C108.573 248.922 112.269 244.441 117.304 243.969L122.63 243.46C122.63 243.46 122.672 243.445 122.687 243.44C133.067 242.469 138.096 244.167 138.382 246.171L138.411 246.161Z" fill="#6F818C"/>
</g>
<defs>
<filter id="filter0_d_127_81" x="-4" y="-8.39233e-05" width="374.409" height="411.219" filterUnits="userSpaceOnUse" color-interpolation-filters="sRGB">
<feFlood flood-opacity="0" result="BackgroundImageFix"/>
<feColorMatrix in="SourceAlpha" type="matrix" values="0 0 0 0 0 0 0 0 0 0 0 0 0 0 0 0 0 0 127 0" result="hardAlpha"/>
<feOffset dy="4"/>
<feGaussianBlur stdDeviation="2"/>
<feComposite in2="hardAlpha" operator="out"/>
<feColorMatrix type="matrix" values="0 0 0 0 0 0 0 0 0 0 0 0 0 0 0 0 0 0 0.25 0"/>
<feBlend mode="normal" in2="BackgroundImageFix" result="effect1_dropShadow_127_81"/>
<feBlend mode="normal" in="SourceGraphic" in2="effect1_dropShadow_127_81" result="shape"/>
</filter>
<clipPath id="clip0_127_81">
<rect width="272" height="332" fill="white" transform="translate(0 89.8594) rotate(-19.291)"/>
</clipPath>
</defs>
</svg>
