<svg xmlns="http://www.w3.org/2000/svg" version="1.1" viewBox="-5.0 -10.0 110.0 135.0">
 <path fill="#746aff" d="m65.539 21.219-48-1.7109v0.003907c-0.13281-0.003907-0.26172 0.046875-0.35937 0.13672-0.097657 0.09375-0.15234 0.22656-0.14844 0.36328v39.77c-0.003906 0.26172 0.19922 0.47656 0.45703 0.5l48 3.5781c0.125 0 0.24609-0.046875 0.33984-0.12891 0.10156-0.097657 0.16016-0.23047 0.16016-0.37109v-41.641c0.003907-0.25781-0.19141-0.47266-0.44922-0.5zm-0.53906 41.602-47-3.5117v-38.777l47 1.668zm-45.27-5.1406c0.011719 0.035156 0.027343 0.070312 0.050781 0.10156v0.058594c0.0625 0.066406 0.13672 0.12109 0.21875 0.16016 0.050781 0.007812 0.10156 0.007812 0.14844 0l42.68 3.0703c0.12891-0.003906 0.25-0.054687 0.34375-0.14062 0.097656-0.09375 0.15625-0.22266 0.15625-0.35938v-35.57c-0.003906-0.26953-0.21875-0.48828-0.48828-0.5l-42.629-1.5c-0.13672-0.003906-0.26563 0.046875-0.35938 0.14062-0.10156 0.09375-0.15625 0.22266-0.15234 0.35938v34 0.070312c0.003906 0.039063 0.011719 0.074219 0.03125 0.10938zm42.648 2.3711-40.867-2.9297 2.3594-1.8789c1.6211 0.23047 12.289 1.7188 17.66 1.9414 6 0.26172 18.289 0.73047 20.852 0.82812zm0-34.578v31.527c-2.6406-0.10156-14.84-0.55859-20.809-0.82031-5.1602-0.21094-15.32-1.6094-17.391-1.9102-0.65625-5.0898-1.0117-10.215-1.0586-15.348 0.027344-4.9336 0.36328-9.8594 1-14.75zm-41.68-1.4219 2.4414 0.078125c-0.62891 4.9062-0.96484 9.8438-1 14.793 0.046875 5.207 0.39844 10.41 1.0586 15.578l-2.5 2zm70.859 35.609c-0.007813-0.074218-0.027344-0.14453-0.058594-0.21094v-0.050781c-0.046875-0.066407-0.11328-0.12109-0.19141-0.16016-0.042969-0.007812-0.09375-0.007812-0.13672 0l-11.578-0.67969 3.0898-3.9297h-0.003906c0.070312-0.085937 0.10937-0.19531 0.10937-0.30859v-31.449c0-0.18359-0.10156-0.35156-0.25781-0.44141l-6.3086-3.4883-0.003906-2.8828c0-0.16797-0.085938-0.32812-0.23047-0.41797s-0.32422-0.10156-0.47656-0.03125l-0.23828 0.10938h-0.003907c-0.085937-0.0625-0.18359-0.097656-0.28906-0.10938l-46.441-1.8984c-0.046874-0.011719-0.09375-0.011719-0.14062 0l-13.398 3.4883-0.10938 0.050781c-0.023437-0.003906-0.046875-0.003906-0.070313 0v0.050781c-0.027343 0.023438-0.046874 0.054688-0.058593 0.089844-0.003907 0.027344-0.003907 0.054687 0 0.078125-0.007813 0.039062-0.007813 0.074219 0 0.10938v46.594c-0.003907 0.25781 0.19922 0.47656 0.45703 0.5h0.32812l-6.8555 3.7773h-0.050781c-0.027344 0.019531-0.050781 0.046875-0.0625 0.082031v0.078125c-0.003906 0.039063-0.003906 0.074219 0 0.10938v0.058594 11.273c0 0.26172 0.20312 0.47656 0.46094 0.5l66.66 5.7383c0.24219 0.007813 0.44922-0.16797 0.48047-0.41016l15.242-15.391c0.09375-0.089843 0.14844-0.21484 0.14844-0.34766v-10.449s-0.011718-0.019531-0.011718-0.03125zm-16.41-42.809v2.3906-0.003907c0 0.18359 0.10156 0.34766 0.26172 0.43359l6.3086 3.4883v10.09l-4.2891 3.0781c-0.10547 0.078125-0.17969 0.19922-0.19922 0.32812-0.023438 0.13281 0.011719 0.26562 0.089843 0.375 0.089844 0.13281 0.23828 0.21094 0.39844 0.20703 0.10547 0.003907 0.21094-0.03125 0.29297-0.097656l3.7109-2.6602v1.7383l-4.293 3.082c-0.10547 0.078125-0.17969 0.19531-0.19922 0.32812-0.023438 0.12891 0.011719 0.26562 0.089843 0.37109 0.09375 0.12891 0.24219 0.20703 0.39844 0.21094 0.10547-0.003907 0.20703-0.039063 0.29297-0.10156l3.7109-2.6602v1.7383l-4.2891 3.0781-0.003906 0.003906c-0.10547 0.078125-0.17969 0.19141-0.19922 0.32422-0.019531 0.12891 0.011719 0.26172 0.089843 0.36719 0.089844 0.13281 0.23828 0.21094 0.39844 0.21094 0.10547 0 0.20703-0.03125 0.29297-0.09375l3.7109-2.6602v1.7305l-4.2891 3.0781-0.003906 0.003907c-0.10547 0.078125-0.17969 0.19531-0.19922 0.32812-0.023438 0.12891 0.011719 0.26562 0.089843 0.37109 0.089844 0.13281 0.23828 0.21094 0.39844 0.21094 0.10547 0 0.20703-0.03125 0.29297-0.089844l3.7109-2.6719v1.7383l-4.293 3.082c-0.10547 0.078125-0.17969 0.19531-0.19922 0.32812-0.023438 0.13281 0.011719 0.26562 0.089843 0.37109 0.09375 0.13281 0.24219 0.21094 0.39844 0.21094 0.10547-0.003906 0.20312-0.042969 0.28125-0.10938l3.7109-2.6602v7.7617l-10.191 12.949-3.0781 0.67969v-47.73zm-5.3008 51.602-1.4102 1.1406v-0.82812zm-41.336-53.742 44.488 1.8203-5.1484 2.6484-49.301-1.8711zm38.93 55.391-46.09-3.543v-1.3984l46.09 3.6602zm-51.812-51.902 51.809 2 0.003906 47.621-51.812-4.1094zm59.621 67.051-65.82-5.6602v-2.5117l65.82 5.6289zm-8.5195-6v1.75l-6-0.51172v-1.75zm-6-1.4688v-2.2695l6 0.42969v2.25zm14.512 4-7.5195-0.64844-0.003906-1.8633 2.9414 0.23047c0.27734 0 0.5-0.22266 0.5-0.5s-0.22266-0.5-0.5-0.5l-3-0.23047v-2.8008c0-0.26172-0.19922-0.47656-0.46094-0.5l-7-0.5c-0.13672-0.007812-0.27344 0.042969-0.37109 0.13672-0.10156 0.09375-0.16016 0.22656-0.15625 0.36328v2.6914l-3.0781-0.23828h-0.003906c-0.27344-0.015625-0.50781 0.1875-0.53906 0.45703-0.011719 0.13281 0.03125 0.26562 0.11719 0.36719 0.085937 0.10156 0.21094 0.16406 0.34375 0.17578l3.1602 0.23828v1.7188l-50.242-4.3008v-6.6484l65.82 5zm0.17969-8.2383-64.809-5 6.3867-3.6133c0.046875-0.023438 0.085938-0.058594 0.12109-0.10156l3.1914 0.25-0.003906 1.9219c-0.003906 0.26172 0.19922 0.48438 0.46094 0.5l47.102 3.6211c0.0625 0.015625 0.125 0.015625 0.1875 0h0.12891l3.8516-3.1406c0.003907-0.019531 0.003907-0.039063 0-0.058594l6.6992-8.5117c0.089844 0.11328 0.21875 0.17969 0.36328 0.19141l10.621 0.62891zm15.141-3.5312-14.312 14.418v-2l14.32-14.211zm0-3.1289-14.312 14.168v-7l14.32-13.223zm-73 7.8398-5.2891-0.42969-0.003907-2.5312 5.2891 0.42969zm43.707-9.3242c0.003907 0.44922-0.26172 0.85156-0.67578 1.0273-0.41016 0.17188-0.88672 0.078125-1.2031-0.23828-0.3125-0.31641-0.40625-0.79297-0.23438-1.2031s0.57812-0.67969 1.0234-0.67578c0.28906 0 0.56641 0.11719 0.76953 0.32031 0.20703 0.20312 0.32031 0.48047 0.32031 0.76953zm-20-12.801v0.003906c3.0664 0.003907 6.0039-1.2383 8.1406-3.4414 3.4219-3.5391 4.4453-8.7578 2.6133-13.328-1.832-4.5664-6.1758-7.6328-11.094-7.832-3.0664-0.003906-6.0039 1.2383-8.1406 3.4414-3.4219 3.543-4.4453 8.7695-2.6016 13.344 1.8398 4.5703 6.1953 7.6328 11.121 7.8164zm-7.7695-20.426c1.9375-2.0234 4.6172-3.168 7.4219-3.1719 4.5078 0.19141 8.4883 3.0039 10.172 7.1953 1.6875 4.1875 0.76172 8.9766-2.3633 12.234-1.9531 2.0078-4.6328 3.1406-7.4297 3.1406-4.5-0.19531-8.4727-3.0078-10.152-7.1875-1.6797-4.1797-0.76172-8.957 2.3516-12.211zm2.7695 5.3281c0-1.5508 0.5-2.8086 1.1719-2.8086 0.66797 0 1.25 1.3086 1.2695 2.8086 0.019531 1.5-0.5 2.8203-1.1719 2.8203-0.66797 0-1.2383-1.2617-1.2695-2.8203zm7.1602 0c0-1.5508 0.5-2.8086 1.1719-2.8203 0.67188-0.011719 1.2383 1.2617 1.2695 2.8203s-0.5 2.8086-1.1719 2.8086c-0.66797 0-1.25-1.2578-1.2695-2.8086zm-8.8398 3.8789c-0.003906-0.13281 0.046875-0.26172 0.14062-0.35547 0.089843-0.09375 0.21875-0.15234 0.34766-0.15234 0.26953 0.011718 0.48828 0.22266 0.51172 0.48828 0.003906 3.1445 2.5078 5.7148 5.6484 5.8008 1.4219-0.011718 2.7734-0.58984 3.7617-1.6094 1.0898-1.1172 1.6797-2.625 1.6406-4.1797-0.007813-0.13281 0.042969-0.26562 0.13672-0.35938 0.089844-0.097657 0.21875-0.15234 0.35156-0.15234 0.26953 0.011719 0.49219 0.22266 0.51172 0.49219 0.046875 1.8242-0.64844 3.5938-1.9297 4.8984-1.1836 1.2227-2.8125 1.9102-4.5117 1.9102-3.6719-0.10156-6.6016-3.1055-6.6094-6.7812z"/>
</svg>