<svg xmlns="http://www.w3.org/2000/svg" version="1.1" viewBox="-5.0 -10.0 110.0 135.0">
 <path d="m94.262 31.41-6.0859-1.8477c-0.32812-0.10156-0.58594-0.35547-0.6875-0.67969l-1.9258-6.0625c-0.26172-0.82031-1.3516-0.98828-1.8438-0.28125l-3.6406 5.2148c-0.19531 0.28125-0.51562 0.44531-0.85938 0.44531l-6.3594-0.039063c-0.86328-0.007812-1.3555 0.98047-0.83594 1.668l2.5 3.3047c-8.3789 0.29297-18.379 2.0703-28.773 5.3906-25.32 8.0781-43.418 22.23-40.426 31.602 2.9922 9.375 25.941 10.422 51.258 2.3438 13.402-4.2773 24.781-10.254 32.078-16.324 0.73438-0.61328 0.47266-1.8008-0.45312-2.0352-0.007812-0.003906-0.019531-0.003906-0.027343-0.007813-0.33203-0.085937-0.6875-0.019531-0.96484 0.17969-5.6328 4-13.66 7.9102-22.922 10.867-19.375 6.1836-36.789 5.8398-38.898-0.76953-2.1094-6.6133 11.887-16.98 31.262-23.16 6.7383-2.1484 13.238-3.5117 18.941-4.0938l-1.582 4.7656c-0.26953 0.81641 0.51172 1.5938 1.3281 1.3086l6.0117-2.082c0.32422-0.11328 0.67969-0.058594 0.95703 0.14453l5.1211 3.7695c0.69531 0.51172 1.6719 0.003906 1.6562-0.85547l-0.12109-6.3594c-0.007812-0.34375 0.15625-0.66406 0.43359-0.86328l5.168-3.7031c0.69531-0.5 0.51563-1.5859-0.30859-1.8398z" fill="#746aff"/>
</svg>