<svg xmlns="http://www.w3.org/2000/svg" version="1.1" viewBox="-5.0 -10.0 110.0 135.0">
 <path fill="#746aff" d="m58.016 28.668c-0.91406 5.5938-1.1055 9.8359-0.33984 13.008 5.0195 4.3789 16.172 4.7539 36.195 4.7539 0.35156 0 0.69141 0.17578 0.87891 0.5l2.9219 5.0547c0.11328 0.16406 0.17578 0.36328 0.17578 0.57812 0 0.55078-0.45312 1.0156-1.0156 1.0156-22.031 0-33.621 0.45312-40.91 6.2852s-10.625 17.324-16.133 39.367c-0.0625 0.26172-0.22656 0.48828-0.47656 0.64062-0.48828 0.27734-1.1172 0.11328-1.3906-0.375l-2.9375-5.082c-0.15234-0.22656-0.19922-0.51562-0.125-0.78906 4.4648-17.902 6.8984-28.805 5.332-35.289-2.4336-2.1211-6.3359-3.3008-12.008-3.9648-6.0078-0.69141-13.965-0.78906-24.199-0.78906-0.35156 0-0.69141-0.1875-0.89062-0.51562l-2.9219-5.0547c-0.10156-0.16406-0.17578-0.35156-0.17578-0.56641 0-0.56641 0.46484-1.0156 1.0273-1.0156 22.031 0 33.621-0.46484 40.898-6.2969 7.3008-5.832 10.625-17.312 16.145-39.367 0.0625-0.25 0.22656-0.48828 0.47656-0.62891 0.48828-0.28906 1.1055-0.11328 1.3906 0.36328l2.9375 5.0938c0.13672 0.22656 0.19922 0.5 0.125 0.78906-2.2852 9.1211-4.0273 16.434-4.9805 22.281zm-1.9062 14.352c-0.011719-0.011719-0.023437-0.023437-0.039063-0.050781-3.3008-3.0469-4.3164-7.6133-3.6992-14.539 0.023437-0.30078 0.050781-0.60156 0.085937-0.91406-2.5469 6.5625-5.3555 11.078-9.2695 14.215-3.9648 3.1758-8.9844 4.8555-15.895 5.7461 1.0156 0.15234 1.9688 0.32813 2.8594 0.51563 6.8359 1.4688 10.527 4.2539 11.918 9.5078 0.011719 0.050781 0.023438 0.085938 0.023438 0.13672 0.66406 2.6211 0.72656 5.832 0.3125 9.7852 2.5469-6.5859 5.3711-11.117 9.2852-14.25 3.9766-3.1875 9.0078-4.8672 15.945-5.7578-5.293-0.77734-9.0312-2.1094-11.527-4.3906z" fill-rule="evenodd"/>
</svg>