<svg fill="#746aff" xmlns="http://www.w3.org/2000/svg" xmlns:xlink="http://www.w3.org/1999/xlink" version="1.1" x="0px" y="0px" viewBox="0 0 100 125" enable-background="new 0 0 100 100" xml:space="preserve"><g><path fill="#746aff" d="M21.779,31.56v6.281h67.25V31.56H21.779z M88.015,36.956h-4.549v-4.49h4.549V36.956z"/></g><g><g><g><path fill="#746aff" d="M86.059,34.566v0.502h0.534v0.534h0.534v0.566h-0.566v-0.534h-0.534V35.1h-0.502v0.534h-0.534v0.534h-0.566v-0.566h0.534     v-0.534h0.534v-0.502h-0.534v-0.534h-0.534v-0.566h0.566v0.534h0.534v0.534h0.502v-0.534h0.534v-0.534h0.566v0.566h-0.534v0.534     H86.059z"/></g></g></g><path fill="#746aff" d="M90.372,29.373h-4.375v-4.375c0-0.414-0.336-0.75-0.75-0.75h-70c-0.414,0-0.75,0.336-0.75,0.75l0.031,13.25  h-3.031c-0.414,0-0.75,0.336-0.75,0.75v39.75c0,0.414,0.336,0.75,0.75,0.75h70c0.414,0,0.75-0.336,0.75-0.75v-8.125h8.125  c0.414,0,0.75-0.336,0.75-0.75v-39.75C91.122,29.709,90.786,29.373,90.372,29.373z M15.997,25.748h68.5v3.625h-0.594v-2.938h-67.25  v3.906h2.969v7.906h-3.625V25.748z M81.437,28.34v0.534h-0.534v0.499H80.4v-0.499h-0.534V28.34H79.3v0.566h0.534v0.467h-1.493  v-2.031h4.549v2.031h-1.421v-0.467h0.534V28.34H81.437z M80.747,77.998h-68.5v-38.25h2.284v0.002l0.016-0.002h66.2V77.998z   M89.622,69.123h-7.375V38.998c0-0.414-0.336-0.75-0.75-0.75H21.122v-7.375h68.5V69.123z"/><path fill="#746aff" d="M12.904,40.435v6.281h67.25v-6.281H12.904z M79.14,45.831h-4.549v-4.49h4.549V45.831z"/><g><g><path d="M77.184,43.441v0.502h0.534v0.534h0.534v0.566h-0.566v-0.534h-0.534v-0.534H76.65v0.534h-0.534v0.534H75.55v-0.566h0.534    v-0.534h0.534v-0.502h-0.534v-0.534H75.55V42.34h0.566v0.534h0.534v0.534h0.502v-0.534h0.534V42.34h0.566v0.566h-0.534v0.534    H77.184z"/></g></g><g><g><g><path d="M56.25,57.176V58.5h1.408v1.408h1.408v1.493h-1.492v-1.408h-1.408v-1.408h-1.324v1.408h-1.408v1.408h-1.493v-1.493h1.408     V58.5h1.408v-1.324h-1.408v-1.408h-1.408v-1.493h1.493v1.408h1.408v1.408h1.324v-1.408h1.408v-1.408h1.492v1.493h-1.408v1.408     H56.25z"/></g></g><g><g><path d="M39.139,57.176V58.5h1.408v1.408h1.408v1.493h-1.492v-1.408h-1.408v-1.408h-1.324v1.408h-1.408v1.408h-1.493v-1.493     h1.408V58.5h1.408v-1.324h-1.408v-1.408h-1.408v-1.493h1.493v1.408h1.408v1.408h1.324v-1.408h1.408v-1.408h1.492v1.493h-1.408     v1.408H39.139z"/></g></g></g><g><g><rect x="36.81" y="66.956" width="1.479" height="1.479"/></g><g><rect x="38.289" y="66.956" width="1.479" height="1.479"/></g><g><rect x="39.768" y="66.956" width="1.479" height="1.479"/></g><g><rect x="41.247" y="66.956" width="1.479" height="1.479"/></g><g><rect x="42.726" y="66.956" width="1.479" height="1.479"/></g><g><rect x="44.195" y="66.956" width="1.479" height="1.479"/></g><g><rect x="45.648" y="66.956" width="1.479" height="1.479"/></g><g><rect x="47.117" y="66.956" width="1.479" height="1.479"/></g><g><rect x="51.508" y="66.956" width="1.479" height="1.479"/></g><g><rect x="48.586" y="66.956" width="1.479" height="1.479"/></g><g><rect x="50.039" y="66.956" width="1.479" height="1.479"/></g><g><rect x="52.961" y="66.956" width="1.479" height="1.479"/></g><g><rect x="54.419" y="66.956" width="1.479" height="1.479"/></g><g><rect x="55.878" y="66.956" width="1.479" height="1.479"/></g><g><rect x="57.362" y="68.487" width="1.479" height="1.479"/></g><g><rect x="58.841" y="69.972" width="1.479" height="1.479"/></g><g><rect x="35.279" y="68.487" width="1.479" height="1.479"/></g><g><rect x="33.799" y="69.972" width="1.479" height="1.479" /></g></g></svg>