<svg xmlns="http://www.w3.org/2000/svg" version="1.1" viewBox="-5.0 -10.0 110.0 135.0">
 <path fill="#746aff" d="m74.469 71c-4.2188-12.059-11.949-33.578-16.309-41.898-3.6914-7-8.7812-13.238-11-15-0.20312-0.17187-0.42188-0.32812-0.64844-0.46094l-0.23828-0.14062h-0.003907c-0.30859-0.17969-0.64844-0.29688-1-0.35156-0.99219-0.16406-1.9961-0.21875-3-0.16016-4.8281 0.92969-12.121 5-16.262 9h0.003907c-0.25391 0.34375-0.4375 0.73047-0.54297 1.1406-0.21484 0.64453-0.29297 1.3281-0.21875 2 0 0.28906 0.058594 0.62109 0.10156 1 0.62891 7.0273 2.3789 13.906 5.1797 20.383 4 9.7383 18.289 33.5 21.102 38.16h-0.003906c0.63281 1.0703 1.7109 1.8047 2.9414 2l2.1289 0.32812c0.33203 0.054688 0.66406 0.078125 1 0.078125h0.64062c1.0547-0.10156 2.0625-0.47266 2.9297-1.0781l10.551-7.0703c2.5898-1.7266 3.6797-4.9922 2.6484-7.9297zm-19.809 14.672c-0.92578-0.14453-1.7422-0.69141-2.2305-1.4922-2.8086-4.6602-17-28.359-21-38-2.7734-6.3789-4.5039-13.16-5.1211-20.09 0-0.37109-0.070313-0.69922-0.10156-1h0.003907c-0.058594-0.53516 0-1.0781 0.16797-1.5898 0.089844-0.25781 0.19141-0.51172 0.3125-0.76172 4-3.9297 11.078-7.8594 15.75-8.7617v0.003907c0.88281-0.042969 1.7656 0.015625 2.6367 0.16797l-13 7.0703c-1.8906 1.1641-2.7188 3.4805-2 5.582 2.1484 7.8008 4 12.73 8.7109 23 3.6289 8 16.379 31.891 18.75 36.32-0.19922 0-0.39844-0.019532-0.60156-0.058594zm16.609-7.5781-10.559 7.0664c-0.17188 0.12109-0.35156 0.23047-0.53906 0.32031l-0.17188 0.078125-0.39844 0.17188-0.21875 0.078125-0.37891 0.10938h-0.44141c-5.2812-9.8594-15.789-29.762-18.941-36.66-4.6211-10.098-6.5195-14.996-8.6211-22.738-0.25-0.82031-0.25-1.6992 0-2.5195v0.30859c2.0547 7.0156 4.6953 13.848 7.8906 20.422 2 3.8203 5.9219 10.219 9.0586 10.219 0.27734 0 0.5-0.22266 0.5-0.5 0-0.27344-0.22266-0.5-0.5-0.5-1.4609 0-4.3711-2.5508-8.1797-9.6914-3.3984-6.3711-7.6289-19-7.7812-20.09v0.003906c0-0.77734 0.23828-1.5352 0.68359-2.1719l13.398-7.3203c4.1289 5.668 7.7461 11.691 10.809 18 4.5781 9.5508 4.1719 12 3.3594 13.691-0.054687 0.12109-0.0625 0.25781-0.019531 0.38281 0.046875 0.12891 0.14062 0.23047 0.26172 0.28516 0.066406 0.019532 0.14062 0.019532 0.21094 0 0.19141 0.007813 0.36719-0.10547 0.44922-0.27734 1-2 1.4219-4.6094-3.3594-14.559v-0.003906c-2.3281-4.8047-4.9766-9.4453-7.9297-13.891 2.8398 3.4766 5.3242 7.2227 7.418 11.191 4.3281 8.25 12 29.73 16.25 41.789 0.90625 2.5156-0.023437 5.3242-2.25 6.8008zm-11.441-37.094-4.5391-9.6484c-0.25-0.53125-0.71094-0.93359-1.2695-1.1094-0.5625-0.17578-1.168-0.11328-1.6797 0.17969l-12.461 7.1992c-0.96875 0.53516-1.3555 1.7383-0.87891 2.7383l5 10.18c0.26172 0.54297 0.74219 0.94141 1.3203 1.1016 0.57813 0.14844 1.1914 0.054687 1.6992-0.26172l12-7.7188c0.89453-0.5625 1.2422-1.6953 0.80859-2.6602zm-1.3086 1.8203-12 7.7188c-0.26562 0.16797-0.58984 0.21484-0.89062 0.12891-0.30469-0.082031-0.55469-0.28906-0.69922-0.56641l-5-10.18c-0.25-0.52344-0.058594-1.1484 0.44141-1.4414l12.461-7.1914h-0.003906c0.16797-0.097656 0.35938-0.14844 0.55078-0.14844 0.11328 0 0.22266 0.019531 0.33203 0.050781 0.29687 0.085938 0.53906 0.29688 0.66797 0.57812l4.5312 9.6602c0.23047 0.49609 0.066406 1.0859-0.39062 1.3906zm1.4805 9.5391 0.91016 1c0.24219 0.25391 0.57812 0.39844 0.92969 0.40234 0.30078 0 0.59375-0.10938 0.82031-0.3125 0.82422-0.73828 1.5352-1.5938 2.1094-2.5391 0.33984-0.57812 0.16016-1.3242-0.41016-1.6797l-1.6602-1.0898c-0.32422-0.21875-0.73047-0.26953-1.0977-0.14062-0.37109 0.13672-0.66016 0.43359-0.78125 0.80859-0.21875 0.70703-0.53516 1.3828-0.94141 2-0.30859 0.48828-0.26172 1.1211 0.12109 1.5508zm0.71094-1c0.45312-0.6875 0.8125-1.4336 1.0586-2.2188 0.023438-0.082031 0.082031-0.14453 0.16016-0.17188h0.070312c0.046875-0.011719 0.09375-0.011719 0.14062 0l1.6719 1.0703h-0.003906c0.11719 0.066407 0.16016 0.21094 0.10156 0.33203-0.51953 0.85938-1.1641 1.6367-1.9102 2.3086-0.097656 0.09375-0.25391 0.09375-0.35156 0l-0.91016-1c-0.082031-0.09375-0.089843-0.23438-0.019531-0.33984zm-7.3594 6.3789-0.71094-1.4414v0.003906c-0.29297-0.58203-0.94531-0.89453-1.582-0.75-0.87109 0.1875-1.7656 0.25781-2.6602 0.21094-0.44141-0.03125-0.87109 0.14844-1.1602 0.48828-0.27734 0.33203-0.39062 0.77344-0.29688 1.1992l0.48047 2.3398c0.14453 0.64453 0.71484 1.1055 1.3789 1.1094h0.23047c1.2969-0.24609 2.5547-0.67969 3.7305-1.2891 0.32812-0.17188 0.57812-0.46484 0.69141-0.82031 0.11328-0.35547 0.078125-0.73828-0.09375-1.0703zm-1.0586 1h-0.003907c-1.0859 0.5625-2.2461 0.96484-3.4492 1.1914-0.20703 0.023437-0.39844-0.11328-0.44141-0.32031l-0.48828-2.3398c-0.023437-0.125 0.007813-0.25391 0.089844-0.34766 0.082031-0.089844 0.19922-0.14453 0.32031-0.14062 0.98047 0.054688 1.9609-0.023438 2.918-0.23047 0.19141-0.054687 0.39453 0.03125 0.48047 0.21094l0.71094 1.4414v-0.003906c0.085937 0.17578 0.03125 0.38672-0.12891 0.5zm4.4414-10.531-0.003906 0.003907c-0.98438 0.50391-1.9297 1.0703-2.8398 1.6992-0.93359 0.58203-1.8359 1.2188-2.6992 1.8984-0.32812 0.28906-1.3516 1.1719-0.82031 2 0.4375 0.49609 1.0938 0.74609 1.75 0.66016h0.58984c1.1875-0.14062 2.3281-0.55859 3.3281-1.2188 2.1484-1.3984 3.5586-3.8516 2.8398-4.9414-0.51953-0.91016-1.7383-0.30859-2.1406-0.13672zm-1.2305 4.1602c-2 1.3008-4.0586 1.2188-4.2812 0.92969 0-0.48047 2.1914-1.8789 3.2188-2.5586 1.0273-0.67969 2.957-1.957 3.5586-1.957h0.070312c0.16016 0.39844-0.58984 2.2695-2.5586 3.5469zm-3.2891 15c1.4883-0.25 3.4492-1.3398 3.2617-2.5312l-0.007812 0.003906c-0.25781-0.90234-0.97266-1.5977-1.8789-1.8398-1.1953-0.52734-2.5742-0.41406-3.668 0.30078-0.6875 0.60938-0.96875 1.5547-0.72266 2.4375 0.19531 1.0859 1.1953 1.8359 2.2891 1.7109 0.24609-0.007813 0.49219-0.042969 0.73047-0.097657zm-2-1.8203-0.003906 0.003906c-0.19531-0.54297-0.058594-1.1445 0.34766-1.5508 0.39062-0.27344 0.85938-0.40625 1.332-0.37891 0.46094 0 0.91797 0.085937 1.3477 0.25 0.69922 0.26172 1.1914 0.67969 1.25 1.0703 0.058594 0.39062-1 1.1484-2.4297 1.3906-0.75781 0.15625-1.707 0.12891-1.8789-0.80078zm7.6406 4.3281-0.003907 0.003906c-0.25781-0.92578-0.98828-1.6445-1.9219-1.8789-1.2031-0.51562-2.582-0.40234-3.6797 0.30859-0.67969 0.60938-0.95703 1.5508-0.71094 2.4297 0.19531 1.0859 1.1953 1.8359 2.2891 1.7109 0.24609 0 0.49219-0.019531 0.73047-0.058594 1.4922-0.26172 3.4414-1.3398 3.2617-2.5312zm-5.3008 0.71094-0.003907 0.003906c-0.16797-0.52734-0.019531-1.1055 0.37891-1.4883 0.38672-0.28125 0.85547-0.41797 1.332-0.39062 0.46094 0 0.91797 0.085937 1.3477 0.25 0.69922 0.26172 1.1914 0.67969 1.25 1.0781 0.058594 0.39844-1 1.1406-2.4414 1.3789-0.78906 0.11328-1.7266 0.070312-1.8984-0.84766zm8 4.3203-0.003907 0.003906c-0.25-0.94531-1-1.6797-1.9492-1.9102-1.1992-0.52344-2.5781-0.41016-3.6719 0.30078-0.67969 0.61328-0.95313 1.5586-0.71094 2.4375 0.19531 1.0859 1.1953 1.8359 2.293 1.7109 0.24219 0 0.48828-0.023438 0.72656-0.070313 1.4922-0.20703 3.4531-1.3008 3.2617-2.4883zm-5.3008 0.71094-0.003906 0.003906c-0.16406-0.52734-0.019531-1.1016 0.37109-1.4922 0.39062-0.26953 0.86328-0.40234 1.3398-0.37891 0.45703 0.003906 0.91016 0.085938 1.3398 0.23828 0.69922 0.26953 1.1992 0.69141 1.2617 1.0781 0.058594 0.39062-1 1.1406-2.4414 1.3906-0.8125 0.11328-1.75 0.074219-1.9219-0.85547zm6.0781 2.4688-0.003906 0.003906c-1.1953-0.51562-2.5742-0.39844-3.668 0.30859-0.68359 0.60547-0.96484 1.5508-0.71875 2.4297 0.19531 1.0859 1.2031 1.8359 2.2969 1.7109 0.24609 0 0.49219-0.019531 0.73047-0.058593 1.4883-0.26172 3.4492-1.3398 3.2617-2.5312-0.25781-0.93359-1.0078-1.6562-1.9492-1.8789zm-1.5312 3.3984c-0.76172 0.12891-1.7109 0.089844-1.8711-0.82812v0.003906c-0.16406-0.52734-0.019532-1.1016 0.37109-1.4883 0.38672-0.28125 0.85938-0.41797 1.3398-0.39062 0.45703 0 0.91016 0.085938 1.3398 0.25 0.69922 0.26172 1.1992 0.67969 1.2617 1.0781 0.058593 0.40234-1.0703 1.1211-2.4922 1.3594zm4.6719-26.852-0.003906 0.007813c-1.0859 0.4375-1.8789 1.3906-2.1094 2.5391-0.29688 0.80469-0.14453 1.707 0.40234 2.3711 0.22266 0.20312 0.51562 0.3125 0.81641 0.30078 1.0469-0.12891 2.0117-0.62109 2.7305-1.3906 1-1.0703 1.1797-2.25 0.33984-3.1016-0.53516-0.65625-1.4062-0.94531-2.2266-0.73828zm1.4688 1.4297c0.14062 0.14062 0.57031 0.57031-0.10156 1.4219v0.003906c-0.55859 0.77734-1.4336 1.2695-2.3906 1.3398-0.25391-0.42188-0.30078-0.9375-0.12891-1.3984 0.15234-0.79688 0.67578-1.4766 1.4102-1.8281 0.4375-0.0625 0.87891 0.10547 1.1602 0.44922zm0.51172 3.3008-0.003906 0.007813c-1.0859 0.44141-1.8789 1.3984-2.1094 2.5508-0.30078 0.80078-0.14453 1.7031 0.41016 2.3594 0.22266 0.20703 0.51562 0.3125 0.82031 0.29688 1.043-0.125 2.0117-0.61719 2.7305-1.3867 1-1.0703 1.1797-2.2617 0.32812-3.1016-0.53125-0.66406-1.4062-0.95312-2.2305-0.73828zm1.4805 1.4297c0.14062 0.14062 0.55859 0.57031-0.10938 1.4219l-0.003907 0.003906c-0.55859 0.77734-1.4297 1.2656-2.3789 1.3398-0.26562-0.41797-0.3125-0.9375-0.13281-1.3984 0.14844-0.80078 0.67188-1.4805 1.4102-1.8203 0.4375-0.066406 0.87891 0.10156 1.1602 0.44141zm0.51172 3.3008-0.003906 0.007812c-1.0898 0.4375-1.8828 1.3984-2.1133 2.5469-0.29297 0.80469-0.14062 1.7031 0.40234 2.3633 0.22656 0.20312 0.52344 0.3125 0.82812 0.29688 1.043-0.12891 2.0078-0.62109 2.7227-1.3867 1.0586-1.0703 1.1914-2.25 0.33984-3.1016-0.53906-0.66016-1.4062-0.94531-2.2305-0.74219zm1.4688 1.4297c0.14063 0.14062 0.57031 0.55859-0.10156 1.4219l-0.003906 0.003907c-0.5625 0.77344-1.4336 1.2617-2.3867 1.3398-0.25781-0.42187-0.30078-0.9375-0.12109-1.3984 0.14844-0.79688 0.66797-1.4727 1.3984-1.8203 0.4375-0.070312 0.87891 0.097657 1.1602 0.44141zm0.51172 3.3008-0.003906 0.003906c-1.0898 0.44531-1.8789 1.4023-2.1133 2.5508-0.29297 0.80469-0.13672 1.7031 0.41016 2.3594 0.22266 0.20703 0.51953 0.31641 0.82031 0.30078 1.0469-0.12891 2.0117-0.62109 2.7305-1.3906 1-1.0703 1.1797-2.2617 0.33984-3.1016v0.003906c-0.53906-0.66016-1.4141-0.94922-2.2383-0.74219zm1.3711 2.8516-0.007813 0.003907c-0.57422 0.77734-1.4648 1.2617-2.4297 1.3203-0.26172-0.41797-0.3125-0.9375-0.12891-1.3984 0.14453-0.80078 0.67188-1.4805 1.4102-1.8203 0.45703-0.089844 0.92578 0.089844 1.2109 0.45703 0.14844 0.14062 0.57031 0.57031-0.11328 1.4219zm-13.289-7.3984-0.007812 0.003906c0.69141-0.019531 1.3594-0.24219 1.9219-0.64062 1.3086-0.89844 1.8203-2.3516 1.1602-3.3008h-0.003906c-0.39062-0.48047-0.98828-0.75-1.6094-0.73047-0.67969 0.019531-1.3359 0.24219-1.8906 0.64062-1.3008 0.89844-1.8086 2.3516-1.1602 3.3008h0.003906c0.36328 0.47266 0.93359 0.73438 1.5273 0.71094zm0.09375-3.2773c0.39063-0.28125 0.85547-0.44141 1.3398-0.46094 0.28516-0.019531 0.5625 0.089844 0.75781 0.30078 0.28125 0.42188 0 1.3008-0.91016 1.9102-0.91016 0.60938-1.8203 0.57812-2.1016 0.16016-0.27734-0.42188 0.023438-1.2617 0.91406-1.9102zm2.0586 7.8008c0.67969-0.027343 1.3359-0.25 1.8906-0.64062 0.56641-0.375 1.0117-0.91406 1.2773-1.5391 0.25781-0.57422 0.21484-1.2383-0.11719-1.7695-0.38672-0.48828-0.98047-0.75781-1.6016-0.73047-0.67969 0.015625-1.3398 0.23828-1.8906 0.64062-0.55469 0.39062-0.97656 0.94141-1.2188 1.5781-0.28125 0.55859-0.23828 1.2266 0.11328 1.7461 0.35156 0.51562 0.95312 0.80469 1.5781 0.75391zm-0.76172-2.1016c0.19922-0.4375 0.51172-0.8125 0.91016-1.0781 0.39453-0.28125 0.85938-0.44141 1.3398-0.46094 0.28516-0.023437 0.5625 0.089844 0.75 0.30078 0.13672 0.25781 0.13672 0.57031 0 0.82812-0.41016 0.88672-1.2734 1.4805-2.25 1.5508-0.28906 0.023437-0.57422-0.089844-0.76953-0.30859-0.12891-0.26562-0.12109-0.57422 0.019532-0.83203zm3 6.7188v0.003906c0.68359-0.03125 1.3398-0.25391 1.9023-0.64062 0.5625-0.37891 1.0039-0.91406 1.2695-1.543 0.27734-0.5625 0.25-1.2266-0.070312-1.7695-0.64844-1-2.1914-1-3.4883-0.089844-1.3008 0.91016-1.8203 2.3516-1.1602 3.3008 0.35547 0.47656 0.92188 0.75391 1.5195 0.74219zm0.10156-3.2188c0.39453-0.28125 0.86328-0.44141 1.3516-0.46094 0.29297-0.058593 0.59375 0.0625 0.76172 0.30859 0.16797 0.25 0.17188 0.57422 0.007813 0.82422-0.17969 0.45312-0.48828 0.84766-0.89062 1.1289-0.39453 0.27734-0.85938 0.44141-1.3398 0.46875-0.28906 0.015625-0.57031-0.097656-0.76953-0.30859-0.28125-0.46094 0.019531-1.3516 0.87891-1.9609zm5.1484 3.8516c-0.37891-0.5-0.98047-0.77734-1.6094-0.74219-1.3828 0.082031-2.6055 0.92578-3.168 2.1914-0.28125 0.5625-0.23828 1.2305 0.11328 1.75 0.35547 0.51953 0.96094 0.80469 1.5859 0.75 0.69141-0.015625 1.3633-0.23828 1.9297-0.64062 1.3008-0.89844 1.8086-2.3516 1.1602-3.3086zm-1.7305 2.4805c-0.89062 0.60938-1.8203 0.57812-2.1016 0.16016h0.003906c-0.12891-0.26172-0.12891-0.57031 0-0.83203 0.19531-0.44141 0.51563-0.81641 0.91797-1.0781 0.39062-0.28125 0.85156-0.44141 1.332-0.47266 0.28516-0.015625 0.5625 0.097656 0.75 0.3125 0.30859 0.37891 0.007813 1.3008-0.87891 1.9102zm-24.559-45.66 5.1211-3c0.19141-0.11328 0.42188-0.13672 0.63281-0.070313 0.21094 0.066407 0.38281 0.21875 0.47656 0.41797l0.30078 0.62891v0.003906c0.15625 0.36328 0.019531 0.79297-0.32031 1l-5.1289 3c-0.19141 0.10938-0.42188 0.13281-0.63281 0.066407-0.21094-0.066407-0.38672-0.21875-0.48047-0.41797l-0.28906-0.62891c-0.16797-0.36719-0.027343-0.80078 0.32031-1zm-3-10.379v-0.003907c0-0.17969 0.10938-0.34375 0.27734-0.41406 0.16797-0.070313 0.36328-0.03125 0.49219 0.097656s0.16797 0.32031 0.097656 0.49219c-0.070312 0.16797-0.23437 0.27734-0.41797 0.27734-0.23828-0.011718-0.42969-0.21094-0.42969-0.45312zm1.1406 2.2578c0-0.18359 0.10938-0.34766 0.27734-0.41406 0.16797-0.070313 0.36328-0.03125 0.49219 0.097656 0.12891 0.125 0.16406 0.32031 0.097657 0.48828-0.070313 0.16797-0.23438 0.27734-0.41797 0.27734-0.11719 0-0.23438-0.046875-0.31641-0.13281-0.085937-0.082031-0.13281-0.19531-0.13281-0.31641zm1.3008 2.3594c0-0.18359 0.10938-0.34766 0.28125-0.41406 0.16797-0.070312 0.36328-0.03125 0.48828 0.10156 0.12891 0.12891 0.16406 0.32422 0.09375 0.49219-0.074218 0.16797-0.24219 0.27344-0.42578 0.26953-0.23047-0.019532-0.41016-0.21484-0.41016-0.44922z"/>
</svg>