<svg xmlns="http://www.w3.org/2000/svg" xmlns:xlink="http://www.w3.org/1999/xlink" version="1.1" x="0px" y="0px" viewBox="0 0 100 125" style="enable-background:new 0 0 100 100;" xml:space="preserve"><path d="M50,5C25.1,5,5,25.1,5,50c0,24.9,20.1,45,45,45s45-20.1,45-45C95,25.1,74.9,5,50,5z M63.9,24c2.8,0,5.1,5.8,5.1,13  s-2.3,13-5.1,13c-2.8,0-5.1-5.8-5.1-13S61.1,24,63.9,24z M36.1,24c2.8,0,5.1,5.8,5.1,13s-2.3,13-5.1,13c-2.8,0-5.1-5.8-5.1-13  S33.3,24,36.1,24z M50,83.9c-17.8,0-32.2-14.1-32.2-31.4c0-0.5,0.4-0.9,0.9-0.9s0.9,0.4,0.9,0.9c0,16.3,13.7,29.6,30.5,29.6  c16.8,0,30.5-13.3,30.5-29.6c0-0.5,0.4-0.9,0.9-0.9s0.9,0.4,0.9,0.9C82.2,69.8,67.8,83.9,50,83.9z" fill="#746aff"/></svg>