<svg xmlns="http://www.w3.org/2000/svg" version="1.1" viewBox="-5.0 -10.0 110.0 135.0">
  <path d="m49.773 23.75c-0.5 3.3516-1 6.6992-1.4766 10.051-0.5 3.3516-0.97656 6.6992-1.4766 10.051h21.574 21.602c-7.5 2.0508-14.977 4.125-22.477 6.1758-7.5 2.0508-15 4.1016-22.477 6.1484-0.47656 3.3516-0.97656 6.6992-1.4258 10.023-0.47656 3.3516-0.94922 6.6992-1.4258 10.051-3.5-4.1484-7-8.3008-10.5-12.449-3.625 2.0742-7.2266 4.1484-10.852 6.2266-3.625 2.0742-7.2266 4.1484-10.852 6.2266 2.5234-3.3516 5.0742-6.6992 7.625-10.051 2.5234-3.3242 5.0742-6.6758 7.625-10.023-3.5234-4.125-7.0508-8.25-10.574-12.375 3.3242 0.023437 6.6484 0.023437 9.9492 0.023437 3.3242 0.023437 6.6484 0.023437 9.9766 0.023437 2.5234-3.3516 5.0508-6.6992 7.5742-10.051 2.5234-3.3516 5.0508-6.6992 7.6016-10.051z" fill="#746aff" fill-rule="evenodd"/>
</svg>
